scontrino-regular.sfdir
StartChar: parenleft
Encoding: 40 40 47
Width: 566
Flags: HW
LayerCount: 2
Fore
SplineSet
308.20703125 -182.942382812 m 1
 295.807617188 -173.522460938 275.748046875 -139.067382812 263.608398438 -106.375 c 0
 251.461914062 -73.6826171875 232.990234375 -30.94140625 222.530273438 -11.3935546875 c 0
 212.092773438 8.154296875 203.520507812 42.0634765625 203.520507812 63.9599609375 c 0
 203.520507812 85.857421875 194.474609375 111.2734375 183.435546875 120.44140625 c 0
 167.588867188 133.586914062 163.350585938 171.5625 163.350585938 300.16796875 c 0
 163.350585938 403.522460938 168.885742188 468.765625 178.469726562 478.356445312 c 0
 195.391601562 495.275390625 242.564453125 624.810546875 243.241210938 656.211914062 c 0
 243.495117188 667.352539062 258.740234375 687.779296875 277.155273438 701.60546875 c 0
 295.564453125 715.430664062 310.629882812 740.260742188 310.629882812 756.78125 c 0
 310.629882812 786.19140625 354.823242188 810.702148438 379.90234375 795.202148438 c 0
 402.486328125 781.252929688 389.928710938 714.903320312 358.267578125 680.754882812 c 0
 323.436523438 643.192382812 283.90234375 559.93359375 283.765625 523.854492188 c 0
 283.724609375 511.8671875 274.688476562 484.798828125 263.680664062 463.704101562 c 0
 237.965820312 414.412109375 234.833984375 139.008789062 259.885742188 130.658203125 c 0
 268.8046875 127.685546875 277.344726562 103.146484375 278.86328125 76.12890625 c 0
 280.4453125 49.1103515625 291.166992188 17.46875 302.807617188 5.8154296875 c 0
 314.447265625 -5.8369140625 323.999023438 -28.6630859375 323.999023438 -44.90625 c 0
 323.999023438 -61.1513671875 342.091796875 -94.232421875 364.169921875 -118.421875 c 0
 409.849609375 -168.434570312 413.129882812 -181.291015625 383.147460938 -192.791992188 c 0
 352.213867188 -204.663085938 333.491210938 -202.202148438 308.15625 -182.942382812 c 1
 308.20703125 -182.942382812 l 1
EndSplineSet
EndChar
StartChar: parenright
Encoding: 41 41 48
Width: 566
Flags: HW
LayerCount: 2
Fore
SplineSet
198.159179688 -196.868164062 m 2
 158.71484375 -182.260742188 161.513671875 -163.830078125 209.857421875 -119.662109375 c 0
 232.306640625 -99.142578125 251.631835938 -69.7939453125 252.791992188 -54.41796875 c 0
 254.056640625 -39.0517578125 259.052734375 -29.0283203125 264.111328125 -32.1591796875 c 0
 277.548828125 -40.474609375 289.500976562 -2.248046875 289.500976562 48.9833984375 c 0
 289.500976562 73.5185546875 296.235351562 95.86328125 304.456054688 98.6015625 c 0
 327.98046875 106.443359375 320.076171875 427.239257812 295.4765625 462.338867188 c 0
 284.821289062 477.546875 276.126953125 507.135742188 276.126953125 528.107421875 c 0
 276.126953125 549.071289062 267.083984375 575.276367188 256.048828125 586.317382812 c 0
 245.013671875 597.3515625 235.971679688 618.01171875 235.971679688 632.2109375 c 0
 235.971679688 646.408203125 226.928710938 658.01171875 215.893554688 658.01171875 c 0
 204.858398438 658.01171875 195.81640625 669.42578125 195.81640625 683.337890625 c 0
 195.81640625 697.28125 186.7734375 712.142578125 175.73828125 716.37890625 c 0
 143.956054688 728.583984375 150.6015625 787.400390625 184.75 796.334960938 c 0
 221.809570312 806.010742188 235.967773438 796.967773438 235.967773438 763.870117188 c 0
 235.967773438 749.357421875 245.010742188 733.990234375 256.045898438 729.766601562 c 0
 267.080078125 725.529296875 276.123046875 715.854492188 276.123046875 708.234375 c 0
 276.123046875 700.645507812 285.513671875 687.524414062 297.0234375 679.145507812 c 0
 308.5 670.735351562 318.459960938 644.479492188 319.124023438 620.78125 c 0
 320.388671875 577.274414062 335.123046875 563.592773438 347.581054688 594.443359375 c 0
 351.311523438 603.643554688 354.821289062 587.740234375 355.390625 559.109375 c 0
 356.022460938 526.315429688 364.939453125 500.827148438 379.419921875 490.245117188 c 0
 413.44140625 465.361328125 423.360351562 126.157226562 391.403320312 80.5322265625 c 0
 379.546875 63.583984375 369.83984375 33.6953125 369.83984375 14.0888671875 c 0
 369.83984375 -33.4365234375 342.96484375 -82.6845703125 279.642578125 -151.090820312 c 0
 236.739257812 -197.450195312 222.055664062 -205.705078125 198.184570312 -196.874023438 c 2
 198.159179688 -196.868164062 l 2
EndSplineSet
EndChar
StartChar: comma
Encoding: 44 44 51
Width: 566
Flags: HW
LayerCount: 2
Fore
SplineSet
214.288085938 -194.106445312 m 1
 172.176757812 -178.189453125 172.194335938 -179.4921875 213.202148438 -110.282226562 c 0
 240.1171875 -64.68359375 243.010742188 -48.5927734375 228.504882812 -25.38671875 c 0
 204.737304688 12.69140625 205.569335938 110.280273438 229.58984375 117.674804688 c 0
 283.02734375 134.026367188 344.340820312 138.077148438 363.0390625 126.501953125 c 0
 377.18359375 117.747070312 383.83984375 83.2900390625 383.40625 20.498046875 c 0
 383.043945312 -56.1708984375 375.627929688 -81.9716796875 341.938476562 -126.123046875 c 0
 290.5625 -193.484375 258.211914062 -210.7109375 214.258789062 -194.11328125 c 1
 214.288085938 -194.106445312 l 1
EndSplineSet
EndChar
StartChar: hyphen
Encoding: 45 45 52
Width: 566
Flags: HW
LayerCount: 2
Fore
SplineSet
77.81640625 251.578125 m 1
 45.697265625 269.927734375 42.857421875 325.212890625 74.0546875 325.212890625 c 0
 86.44140625 325.212890625 96.591796875 331.458984375 96.591796875 339.125 c 0
 96.591796875 346.862304688 176.635742188 353.108398438 276.888671875 353.21484375 c 0
 376.051757812 353.321289062 457.185546875 347.856445312 457.185546875 341.077148438 c 0
 457.185546875 334.297851562 471.772460938 324.928710938 489.588867188 320.279296875 c 0
 519.828125 312.364257812 520.466796875 309.489257812 499.030273438 277.23828125 c 0
 477.344726562 244.5859375 465.845703125 242.4921875 290.083984375 239.627929688 c 0
 187.403320312 237.853515625 92.3115234375 243.319335938 77.794921875 251.624023438 c 1
 77.81640625 251.578125 l 1
EndSplineSet
EndChar
StartChar: slash
Encoding: 47 47 54
Width: 566
Flags: HW
LayerCount: 2
Fore
SplineSet
106.431640625 -182.7734375 m 2
 77.748046875 -161.008789062 76.07421875 -110.876953125 103.05078125 -81.0859375 c 0
 114.075195312 -68.923828125 124.46875 -42.1552734375 126.142578125 -21.607421875 c 0
 127.721679688 -1.07421875 136.8828125 18.6875 146.233398438 22.279296875 c 0
 155.994140625 26.0380859375 163.227539062 51.1513671875 163.227539062 81.2841796875 c 0
 163.227539062 115.599609375 170.177734375 136.428710938 183.287109375 141.4609375 c 0
 195.669921875 146.19921875 203.345703125 166.541992188 203.345703125 194.533203125 c 0
 203.345703125 219.48828125 209.505859375 239.907226562 217.055664062 239.907226562 c 0
 228.774414062 239.907226562 258.938476562 294.771484375 262.407226562 322.370117188 c 0
 263.0390625 327.266601562 268.030273438 335.795898438 273.55859375 341.323242188 c 0
 279.0859375 346.8515625 283.603515625 370.669921875 283.603515625 394.291992188 c 0
 283.603515625 417.919921875 291.374023438 443.684570312 300.8828125 451.572265625 c 0
 310.390625 459.46875 319.709960938 488.616210938 321.573242188 516.360351562 c 0
 323.46875 544.095703125 333.29296875 576 343.46484375 587.236328125 c 0
 353.635742188 598.482421875 361.912109375 613.676757812 361.880859375 621.036132812 c 0
 361.83984375 628.396484375 367.977539062 655.471679688 375.55859375 681.212890625 c 0
 383.108398438 706.958007812 392.837890625 744.943359375 397.133789062 765.634765625 c 0
 403.672851562 797.19140625 410.811523438 802.578125 441.256835938 799.065429688 c 0
 472.403320312 795.463867188 478.143554688 787.977539062 481.618164062 746.396484375 c 0
 484.145507812 715.819335938 477.985351562 690.244140625 464.908203125 677.14453125 c 0
 453.47265625 665.709960938 444.154296875 638.325195312 444.154296875 616.260742188 c 0
 444.154296875 594.1796875 435.119140625 567.114257812 424.094726562 556.083984375 c 0
 413.0703125 545.05859375 403.846679688 516.03515625 403.59375 491.607421875 c 0
 403.34375 467.189453125 394.337890625 435.51171875 383.53515625 421.234375 c 0
 372.731445312 406.956054688 363.88671875 381.73828125 363.88671875 365.188476562 c 0
 363.88671875 348.63671875 357.853515625 331.3828125 350.524414062 326.836914062 c 0
 343.1640625 322.288085938 337.162109375 306.840820312 337.162109375 292.487304688 c 0
 337.162109375 278.145507812 325.884765625 256.731445312 312.081054688 244.91796875 c 0
 298.276367188 233.103515625 289.779296875 212.8046875 293.190429688 199.80859375 c 0
 296.602539062 186.825195312 290.6640625 158.926757812 279.765625 137.840820312 c 0
 268.994140625 116.739257812 255.663085938 78.44140625 250.198242188 52.69921875 c 0
 244.702148438 26.9541015625 234.309570312 2.119140625 227.043945312 -2.49609375 c 0
 219.809570312 -7.107421875 212.923828125 -29.47265625 211.786132812 -52.19140625 c 0
 210.522460938 -74.9033203125 202.278320312 -100.919921875 193.211914062 -109.9921875 c 0
 184.146484375 -119.05859375 176.72265625 -139.686523438 176.72265625 -155.818359375 c 0
 176.72265625 -171.9609375 167.21484375 -188.796875 155.55859375 -193.263671875 c 0
 129.875976562 -203.120117188 134.677734375 -204.130859375 106.50390625 -182.776367188 c 2
 106.431640625 -182.7734375 l 2
EndSplineSet
EndChar
StartChar: zero
Encoding: 48 48 55
Width: 566
Flags: HW
LayerCount: 2
Fore
SplineSet
130.34765625 -140.817382812 m 1
 97.001953125 -106.6796875 69.517578125 -67.765625 69.224609375 -54.32421875 c 0
 68.931640625 -40.859375 57.62109375 -15.236328125 44.076171875 2.66015625 c 0
 7.7607421875 50.6591796875 8.236328125 568.424804688 44.47265625 604.8046875 c 0
 58.2939453125 618.625976562 69.66015625 639.932617188 69.7001953125 652.106445312 c 0
 69.7509765625 664.303710938 95.7587890625 702.548828125 127.524414062 737.129882812 c 0
 181.87109375 796.30078125 191.146484375 800 285.302734375 800 c 0
 381.133789062 800 387.375 797.227539062 433.663085938 737.129882812 c 0
 535.8515625 604.178710938 535.3046875 606.293945312 544.551757812 305.932617188 c 0
 553.106445312 28.69921875 552.51171875 22.4384765625 511.28515625 -53.345703125 c 0
 452.495117188 -161.415039062 402.23046875 -193.98828125 286.780273438 -198.8359375 c 0
 195.950195312 -202.795898438 187.5625 -199.627929688 130.216796875 -140.817382812 c 1
 130.34765625 -140.817382812 l 1
322.608398438 -71.796875 m 2
 359.28125 -71.796875 371.530273438 -63.916015625 371.530273438 -40.3125 c 0
 371.530273438 -23.005859375 383.291992188 0.921875 397.66796875 12.8544921875 c 0
 419.96484375 31.3486328125 422.618164062 72.9873046875 415.608398438 296.958007812 c 0
 408.440429688 527.23046875 402.974609375 566.928710938 371.0546875 621.013671875 c 0
 340.837890625 672.228515625 325.333007812 682.64453125 279.322265625 682.64453125 c 0
 233.533203125 682.64453125 217.798828125 672.228515625 188.377929688 622.344726562 c 0
 156.418945312 568.19921875 152.65625 535.309570312 151.23046875 300.26171875 c 0
 150.041992188 121.219726562 155.586914062 36.5087890625 168.37890625 32.244140625 c 0
 178.67578125 28.6796875 187.111328125 9.2744140625 187.111328125 -11.1572265625 c 0
 187.111328125 -56.59375 220.021484375 -92.38671875 250.879882812 -80.5419921875 c 0
 263.43359375 -75.75 295.694335938 -71.7890625 322.604492188 -71.7890625 c 2
 322.608398438 -71.796875 l 2
EndSplineSet
EndChar
StartChar: three
Encoding: 51 51 58
Width: 566
Flags: HW
LayerCount: 2
Fore
SplineSet
346.08984375 -199.381835938 m 1
 343.35546875 -196.646484375 296.576171875 -190.864257812 242.38671875 -186.37109375 c 0
 161.826171875 -179.690429688 136.947265625 -170.157226562 105.93359375 -134.119140625 c 0
 85.068359375 -109.85546875 67.99609375 -75.5517578125 67.99609375 -57.869140625 c 0
 67.99609375 -40.169921875 60.572265625 -25.7138671875 51.46875 -25.7138671875 c 0
 42.365234375 -25.7138671875 34.94140625 8.27734375 34.94140625 49.8134765625 c 0
 34.94140625 122.44921875 36.50390625 125.140625 80.423828125 120.108398438 c 0
 118.986328125 115.654296875 126.73828125 106.16015625 131.359375 57.548828125 c 0
 139.408203125 -27.2568359375 191.78515625 -70.3046875 288.2578125 -71.4423828125 c 0
 347.908203125 -72.2236328125 370.494140625 -65.4638671875 378.203125 -44.9130859375 c 0
 383.8671875 -29.79296875 398.36328125 -10.0234375 410.396484375 -0.908203125 c 0
 426.689453125 11.3603515625 429.501953125 42.2724609375 421.453125 119.147460938 c 0
 409.107421875 237.077148438 361.890625 305.079101562 292.400390625 305.079101562 c 0
 261.84765625 305.079101562 247.84375 315.98046875 240.4375 345.486328125 c 0
 226.09765625 402.630859375 243.171875 420.856445312 311.005859375 420.856445312 c 0
 390.142578125 420.856445312 438.9609375 474.735351562 423.2734375 544.764648438 c 0
 417.140625 572.153320312 411.630859375 603.827148438 410.966796875 615.201171875 c 0
 410.185546875 626.5703125 400.69140625 635.869140625 389.517578125 635.869140625 c 0
 378.34375 635.869140625 365.56640625 645.36328125 361.11328125 657.005859375 c 0
 349.041015625 688.536132812 201.515625 691.387695312 189.59765625 660.522460938 c 0
 184.44140625 647.04296875 170.453125 636.025390625 158.537109375 636.025390625 c 0
 146.62109375 636.025390625 133.962890625 627.234375 130.3671875 616.529296875 c 0
 126.109375 603.791992188 112.70703125 601.838867188 91.765625 610.903320312 c 0
 74.10546875 618.521484375 53.359375 623.327148438 45.646484375 621.608398438 c 0
 37.912109375 620.045898438 46.818359375 637.783203125 65.416015625 661.389648438 c 0
 84.013671875 685.02734375 95.109375 715.025390625 90.0703125 728.090820312 c 0
 84.443359375 742.78125 91.2421875 751.845703125 108.04296875 751.845703125 c 0
 122.927734375 751.845703125 139.298828125 762.66796875 144.37890625 775.874023438 c 0
 149.45703125 789.080078125 173.408203125 799.94140625 197.615234375 799.98046875 c 0
 284.1328125 800.15625 374.287109375 799.19921875 394.380859375 797.63671875 c 0
 405.634765625 796.854492188 419.15234375 782.4375 424.427734375 765.754882812 c 0
 429.701171875 749.071289062 442.2421875 735.436523438 452.244140625 735.436523438 c 0
 462.248046875 735.436523438 465.919921875 730.943359375 460.41015625 725.434570312 c 0
 454.90234375 719.924804688 467.833984375 697.967773438 489.126953125 676.654296875 c 0
 519.7578125 646.0234375 528.041015625 619.553710938 528.556640625 550.515625 c 0
 528.947265625 501.310546875 519.765625 452.16015625 507.576171875 438.028320312 c 0
 466.064453125 389.952148438 461.78515625 325.099609375 497.73046875 289.134765625 c 0
 526.173828125 260.69140625 531.05859375 234.120117188 531.05859375 108.321289062 c 0
 531.05859375 27.2109375 525.470703125 -41.638671875 518.6328125 -44.6708984375 c 0
 511.796875 -47.796875 491.32421875 -79.521484375 473.15234375 -115.373046875 c 0
 451.466796875 -158.095703125 424.759765625 -184.578125 395.6328125 -192.224609375 c 0
 371.173828125 -198.631835938 348.865234375 -201.71875 346.01171875 -199.022460938 c 1
 346.08984375 -199.381835938 l 1
EndSplineSet
EndChar
StartChar: four
Encoding: 52 52 59
Width: 566
Flags: HW
LayerCount: 2
Fore
SplineSet
335.487304688 -183.538085938 m 2
 312.471679688 -170.147460938 306.338867188 -148.529296875 308.784179688 -89.5615234375 c 0
 313.868164062 32.5302734375 300.362304688 49.953125 209.793945312 37.9404296875 c 0
 167.150390625 32.2734375 109.817382812 36 80.79296875 45.974609375 c 0
 32.87890625 62.6640625 28.5517578125 70.115234375 28.5517578125 135.697265625 c 0
 28.5517578125 186.474609375 36.896484375 212.067382812 57.3115234375 223.959960938 c 0
 73.1083984375 233.158203125 80.4052734375 240.920898438 73.4580078125 241.192382812 c 0
 57.73828125 241.96875 136.725585938 399.830078125 159.951171875 414.182617188 c 0
 169.3046875 419.965820312 172.526367188 431.919921875 167.053710938 440.73046875 c 0
 161.620117188 449.541015625 168.994140625 474.65234375 183.19921875 496.522460938 c 0
 197.521484375 518.413085938 209.2421875 546.504882812 209.2421875 558.975585938 c 0
 209.2421875 571.434570312 224.030273438 595.032226562 242.116210938 611.391601562 c 0
 260.203125 627.731445312 274.990234375 653.293945312 274.990234375 668.158203125 c 0
 274.990234375 683.0234375 282.908203125 703.08984375 292.572265625 712.7578125 c 0
 302.236328125 722.421875 312.133789062 744.234375 314.579101562 761.2265625 c 0
 320.866210938 805.053710938 422.317382812 815.614257812 424.133789062 772.637695312 c 0
 424.91015625 756.258789062 428.0546875 728.588867188 431.314453125 711.169921875 c 0
 434.419921875 693.743164062 439.116210938 573.091796875 441.444335938 443.040039062 c 2
 445.63671875 206.583984375 l 1
 491.764648438 173.748046875 l 2
 550.600585938 131.854492188 552.952148438 73.1201171875 496.810546875 47.5458984375 c 0
 468.670898438 34.73828125 454.923828125 14.478515625 453.166015625 -16.70703125 c 0
 451.61328125 -41.7412109375 449.12890625 -83.728515625 447.3828125 -109.989257812 c 0
 445.442382812 -136.264648438 430.577148438 -167.67578125 413.965820312 -179.8203125 c 0
 378.219726562 -205.940429688 374.380859375 -206.134765625 335.506835938 -183.701171875 c 2
 335.487304688 -183.538085938 l 2
284.573242188 192.409179688 m 2
 302.077148438 192.409179688 307.860351562 216.861328125 307.860351562 290.9921875 c 0
 307.860351562 349.20703125 300.7578125 389.575195312 290.51171875 389.575195312 c 0
 266.8359375 389.575195312 187.903320312 213.682617188 201.608398438 191.508789062 c 0
 207.663085938 181.728515625 223.537109375 177.924804688 236.926757812 183.086914062 c 0
 250.317382812 188.209960938 271.7421875 192.440429688 284.557617188 192.440429688 c 2
 284.573242188 192.409179688 l 2
EndSplineSet
EndChar
StartChar: five
Encoding: 53 53 60
Width: 566
Flags: HW
LayerCount: 2
Fore
SplineSet
129.8203125 -162.318359375 m 2
 106.759765625 -137.446289062 87.8623046875 -108.362304688 87.8623046875 -97.72265625 c 0
 87.8623046875 -87.0791015625 75.2939453125 -71.0390625 59.8955078125 -62.09375 c 0
 44.5341796875 -53.1484375 37.58984375 -45.6005859375 44.49609375 -45.3359375 c 0
 51.4033203125 -45.068359375 49.96875 -31.6357421875 41.4765625 -15.482421875 c 0
 -2.734375 67.125 97.4296875 133.358398438 158.557617188 61.931640625 c 0
 176.900390625 40.53125 204.342773438 18.7880859375 219.571289062 13.6435546875 c 0
 234.819335938 8.5107421875 243.61328125 -5.189453125 239.197265625 -16.7763671875 c 0
 225.497070312 -52.443359375 309.27734375 -47.6123046875 360.458984375 -9.7939453125 c 0
 405.52734375 23.5322265625 407.569335938 30.3447265625 407.059570312 145.877929688 c 0
 406.682617188 240.09765625 399.926757812 274.612304688 376.526367188 302.647460938 c 0
 335.081054688 352.328125 278.67578125 347.900390625 223.83984375 290.645507812 c 0
 176.526367188 241.259765625 89.2099609375 223.44140625 86.8095703125 262.678710938 c 0
 86.0546875 273.661132812 82.2421875 382.23046875 78.2041015625 503.942382812 c 0
 70.5048828125 734.400390625 78.3017578125 769.96875 136.602539062 769.96875 c 0
 152.37890625 769.96875 167.6640625 776.799804688 170.608398438 785.140625 c 0
 177.2890625 804.23828125 283.122070312 804.993164062 441.82421875 787.028320312 c 0
 461.450195312 784.763671875 472.772460938 702.787109375 456.204101562 682.814453125 c 0
 445.635742188 670.094726562 398.510742188 662.848632812 327.737304688 663.075195312 c 0
 266.262695312 663.282226562 213.034179688 660.432617188 209.452148438 656.771484375 c 0
 199.036132812 646.052734375 195.978515625 608.231445312 198.016601562 515.060546875 c 0
 199.526367188 447.3359375 204.168945312 432.243164062 219.077148438 447.155273438 c 0
 229.607421875 457.685546875 274.557617188 466.1015625 318.935546875 465.799804688 c 0
 407.508789062 465.044921875 471.51953125 427.310546875 471.51953125 375.448242188 c 0
 471.51953125 359.030273438 485.899414062 333.297851562 503.487304688 318.25 c 0
 531.190429688 294.510742188 535.455078125 271.118164062 535.455078125 142.140625 c 0
 535.455078125 55.61328125 528.1328125 -13.9306640625 517.942382812 -24.11328125 c 0
 508.318359375 -33.73828125 484.8046875 -72.92578125 465.71484375 -111.192382812 c 0
 431.33203125 -180.090820312 430.162109375 -180.782226562 343.418945312 -182.790039062 c 0
 295.251953125 -183.921875 236.978515625 -189.9609375 213.920898438 -196.263671875 c 0
 180.141601562 -205.47265625 163.852539062 -198.905273438 130.0390625 -162.446289062 c 2
 129.8203125 -162.318359375 l 2
EndSplineSet
EndChar
StartChar: six
Encoding: 54 54 61
Width: 566
Flags: HW
LayerCount: 2
Fore
SplineSet
143.879882812 -183.998046875 m 1
 125.408203125 -171.067382812 91.5732421875 -119.56640625 68.7119140625 -69.58203125 c 0
 29.205078125 16.787109375 27.0908203125 36.8662109375 26.1396484375 335.150390625 c 2
 24.9609375 649.006835938 l 1
 75.7666015625 704.630859375 l 2
 103.709960938 735.24609375 126.571289062 769.030273438 126.571289062 779.751953125 c 0
 126.571289062 809.424804688 409.508789062 805.219726562 420.9609375 775.389648438 c 0
 425.716796875 762.969726562 440.0625 752.830078125 452.795898438 752.830078125 c 0
 465.529296875 752.830078125 475.983398438 738.759765625 475.983398438 721.584960938 c 0
 475.983398438 704.41015625 487.223632812 681.025390625 500.940429688 669.635742188 c 0
 533.521484375 642.596679688 534.622070312 536.533203125 502.119140625 536.533203125 c 0
 489.149414062 536.533203125 467.376953125 532.249023438 453.782226562 527.061523438 c 0
 436.33203125 520.379882812 425.759765625 532.602539062 417.821289062 568.634765625 c 0
 403.122070312 635.627929688 351.6484375 669.65625 265.059570312 669.65625 c 0
 176.34765625 669.65625 143.03515625 627.767578125 143.03515625 516.213867188 c 0
 143.03515625 431.08203125 145.393554688 427.965820312 192.571289062 453.162109375 c 0
 209.470703125 462.201171875 266.87890625 472.616210938 320.171875 476.310546875 c 0
 406.17578125 482.28515625 421.299804688 478.276367188 454.745117188 442.393554688 c 0
 475.45703125 420.030273438 492.435546875 388.64453125 492.435546875 372.64453125 c 0
 492.435546875 356.6484375 499.903320312 336.0546875 509.060546875 326.924804688 c 0
 518.217773438 317.767578125 530.361328125 234.05078125 536.099609375 140.858398438 c 0
 545.138671875 -6.330078125 542.977539062 -29.9423828125 519.475585938 -38.955078125 c 0
 504.619140625 -44.6533203125 492.435546875 -64.5009765625 492.435546875 -83.0791015625 c 0
 492.435546875 -137.354492188 413.014648438 -199.83984375 354.87109375 -191.307617188 c 0
 327.713867188 -187.298828125 276.610351562 -189.342773438 241.313476562 -195.788085938 c 0
 196.689453125 -203.962890625 166.891601562 -200.34765625 143.534179688 -183.998046875 c 1
 143.879882812 -183.998046875 l 1
376.318359375 -37.453125 m 2
 376.318359375 -23.7373046875 388.030273438 -12.4970703125 402.3359375 -12.4970703125 c 0
 424.423828125 -12.4970703125 426.939453125 5.7392578125 418.9609375 108.127929688 c 0
 413.7734375 174.469726562 408.310546875 238.979492188 406.77734375 251.481445312 c 0
 405.205078125 263.979492188 382.33203125 287.403320312 355.858398438 303.497070312 c 0
 315.05859375 328.296875 297.856445312 329.868164062 243.274414062 313.754882812 c 0
 207.82421875 303.30078125 175.392578125 291.1171875 171.170898438 286.71484375 c 0
 166.965820312 282.313476562 158.594726562 221.014648438 152.62109375 150.5390625 c 0
 143.03125 37.60546875 145.546875 18.5986328125 173.765625 -9.6005859375 c 0
 215.228515625 -51.0673828125 238.153320312 -59.490234375 313.907226562 -61.08203125 c 0
 358.856445312 -61.8671875 376.298828125 -55.421875 376.298828125 -37.4609375 c 2
 376.318359375 -37.453125 l 2
EndSplineSet
EndChar
StartChar: seven
Encoding: 55 55 62
Width: 566
Flags: HW
LayerCount: 2
Fore
SplineSet
210.418945312 -182.477539062 m 1
 186.390625 -168.498046875 181.029296875 -141.505859375 181.108398438 -35.8720703125 c 0
 181.171875 46.0869140625 190.44140625 111.270507812 206.328125 141.756835938 c 0
 220.149414062 168.248046875 231.4296875 222.286132812 231.4296875 261.85546875 c 0
 231.4296875 310.290039062 239.690429688 336.956054688 256.649414062 343.473632812 c 0
 272.336914062 349.510742188 281.869140625 375.127929688 281.869140625 411.321289062 c 0
 281.869140625 443.333007812 293.228515625 480.844726562 307.08984375 494.717773438 c 0
 320.950195312 508.579101562 332.309570312 531.177734375 332.309570312 544.956054688 c 0
 332.309570312 558.697265625 339.657226562 572.51953125 348.6328125 575.577148438 c 0
 357.609375 578.754882812 367.061523438 600.08203125 369.643554688 623.213867188 c 0
 374.170898438 663.581054688 370.4375 665.384765625 273.46484375 668.672851562 c 0
 33.8310546875 676.814453125 8.4482421875 686.665039062 46.0322265625 756.883789062 c 0
 62.1572265625 787.028320312 137.702148438 812.216796875 156.27734375 793.661132812 c 0
 161.599609375 788.338867188 192.0625 786.194335938 223.926757812 788.934570312 c 0
 263.286132812 792.509765625 281.953125 786.94921875 282.127929688 771.618164062 c 0
 282.337890625 754.540039062 285.3046875 754.143554688 295.47265625 770.030273438 c 0
 310.286132812 793.3828125 340.268554688 797.911132812 454.208007812 794.137695312 c 0
 530.364257812 791.754882812 534.0703125 789.212890625 534.0703125 743.09375 c 0
 534.0703125 716.484375 522.551757812 685.143554688 508.453125 673.443359375 c 0
 494.353515625 661.766601562 486.291015625 648.69921875 490.540039062 644.489257812 c 0
 494.790039062 640.240234375 476.043945312 595.765625 448.909179688 545.623046875 c 0
 421.783203125 495.484375 399.58984375 432.85546875 399.58984375 406.456054688 c 0
 399.58984375 380.043945312 388.23046875 349.034179688 374.369140625 337.5234375 c 0
 358.403320312 324.297851562 349.149414062 287.1953125 349.149414062 236.643554688 c 0
 349.149414062 186.087890625 339.895507812 148.997070312 323.9296875 135.763671875 c 0
 306.454101562 121.266601562 298.708984375 82.6826171875 298.708984375 10.1123046875 c 0
 298.708984375 -90.755859375 273.568359375 -201.053710938 250.827148438 -199.993164062 c 0
 244.790039062 -199.7109375 226.599609375 -191.771484375 210.439453125 -182.358398438 c 1
 210.418945312 -182.477539062 l 1
EndSplineSet
EndChar
StartChar: nine
Encoding: 57 57 64
Width: 566
Flags: HW
LayerCount: 2
Fore
SplineSet
124.928710938 -162.481445312 m 2
 80.01953125 -110.328125 34.7412109375 -25.1015625 34.7412109375 7.275390625 c 0
 34.7412109375 63.16015625 86.8583984375 56.0498046875 143.447265625 -7.56640625 c 0
 192.28515625 -62.462890625 210.202148438 -70.939453125 292.959960938 -78.3017578125 c 0
 378.052734375 -85.8603515625 387.852539062 -83.3408203125 396.135742188 -51.6484375 c 0
 401.174804688 -32.3974609375 411.017578125 -16.6494140625 418.024414062 -16.6494140625 c 0
 429.638671875 -16.6494140625 425.150390625 215.145507812 413.30078125 226.995117188 c 0
 410.544921875 229.750976562 388.734375 221.99609375 364.939453125 209.633789062 c 0
 341.12109375 197.271484375 282.255859375 187.193359375 234.083984375 187.193359375 c 0
 160.364257812 187.193359375 140.373046875 194.161132812 107.810546875 231.1015625 c 0
 86.55078125 255.235351562 68.8740234375 287.27734375 68.5986328125 302.26953125 c 0
 68.2880859375 317.26953125 58.0869140625 348.803710938 45.8427734375 372.358398438 c 0
 18.2451171875 425.5234375 27.890625 628.893554688 59.50390625 660.495117188 c 0
 71.5908203125 672.581054688 97.810546875 708.899414062 117.787109375 741.225585938 c 2
 154.125 800 l 1
 279.583007812 800 l 2
 386.852539062 800 410.76953125 794.567382812 444.594726562 762.481445312 c 0
 466.366210938 741.8515625 484.287109375 712.23046875 484.444335938 696.643554688 c 0
 484.653320312 681.053710938 495.783203125 662.1171875 509.287109375 654.573242188 c 0
 529.483398438 643.274414062 534.208007812 582.181640625 535.939453125 307.918945312 c 0
 537.908203125 21.7314453125 533.971679688 -33.1923828125 508.971679688 -83.3369140625 c 0
 453.803710938 -193.9453125 442.615234375 -200 293.416992188 -200 c 0
 172.875976562 -200 153.534179688 -195.708984375 124.952148438 -162.481445312 c 2
 124.928710938 -162.481445312 l 2
326.404296875 323.481445312 m 1
 410.025390625 328.796875 424.717773438 354.9375 422.150390625 493.765625 c 0
 420.182617188 596.645507812 413.607421875 628.715820312 390.734375 645.452148438 c 0
 349.943359375 675.293945312 194.083984375 673.010742188 168.521484375 642.302734375 c 0
 137.14453125 604.5078125 136.514648438 381.169921875 167.734375 348.233398438 c 0
 200.686523438 313.430664062 236.87109375 300.403320312 268.162109375 312.131835938 c 0
 281.901367188 317.2890625 308.161132812 322.446289062 326.495117188 323.587890625 c 1
 326.404296875 323.481445312 l 1
EndSplineSet
EndChar
StartChar: A
Encoding: 65 65 0
Width: 566
Flags: HW
LayerCount: 2
Fore
SplineSet
70.3203125 -197.045898438 m 1
 61.5478515625 -195.803710938 l 1
 39.6572265625 -186.948242188 l 1
 17.7666015625 -178.134765625 l 1
 18.1806640625 -61.3486328125 l 1
 18.59375 55.4365234375 l 1
 44.3330078125 89.451171875 l 1
 70.072265625 123.466796875 l 1
 70.072265625 221.721679688 l 1
 70.072265625 319.98046875 l 1
 91.2177734375 341.125976562 l 1
 112.36328125 362.272460938 l 1
 116.087890625 442.994140625 l 1
 119.8125 523.715820312 l 1
 138.805664062 542.709960938 l 1
 157.799804688 561.703125 l 1
 157.799804688 620.063476562 l 1
 157.799804688 678.422851562 l 1
 184.077148438 688.51953125 l 1
 210.353515625 698.616210938 l 1
 210.353515625 728.287109375 l 1
 210.353515625 757.95703125 l 1
 231.375 778.978515625 l 1
 252.396484375 800 l 1
 294.584960938 800 l 1
 336.776367188 800 l 1
 325.396484375 754.74609375 l 1
 314.05859375 709.49609375 l 1
 349.770507812 700.143554688 l 1
 385.5234375 690.791015625 l 1
 385.5234375 622.2109375 l 1
 385.5234375 553.633789062 l 1
 411.80078125 543.537109375 l 1
 438.077148438 533.440429688 l 1
 438.077148438 445.274414062 l 1
 438.077148438 357.112304688 l 1
 463.361328125 337.663085938 l 1
 488.64453125 318.213867188 l 1
 492.369140625 213.106445312 l 1
 496.09375 107.998046875 l 1
 521.3359375 78.576171875 l 1
 546.578125 49.154296875 l 1
 547.405273438 -54.8564453125 l 1
 548.233398438 -158.8671875 l 1
 535.529296875 -179.43359375 l 1
 522.825195312 -200 l 1
 484.87890625 -188.165039062 l 1
 446.932617188 -176.330078125 l 1
 436.918945312 -160.8125 l 1
 426.904296875 -145.293945312 l 1
 422.724609375 -54.111328125 l 1
 418.544921875 37.0673828125 l 1
 412.462890625 43.150390625 l 1
 406.379882812 49.2333984375 l 1
 290.41796875 50.888671875 l 1
 174.456054688 52.5439453125 l 1
 156.413085938 34.501953125 l 1
 138.37109375 16.4599609375 l 1
 134.233398438 -74.70703125 l 1
 130.095703125 -165.869140625 l 1
 104.48046875 -182.090820312 l 1
 78.865234375 -198.311523438 l 1
 70.0927734375 -197.0703125 l 1
 70.3203125 -197.045898438 l 1
287.49609375 172.739257812 m 1
 357.037109375 177.953125 l 1
 370.154296875 227.32421875 l 1
 383.272460938 276.696289062 l 1
 348.22265625 311.704101562 l 1
 313.213867188 346.75390625 l 1
 317.4765625 451.108398438 l 1
 321.739257812 555.458984375 l 1
 301.875976562 575.322265625 l 1
 282.012695312 595.143554688 l 1
 257.30859375 574.66015625 l 1
 232.604492188 554.176757812 l 1
 236.328125 441.4296875 l 1
 240.052734375 328.6875 l 1
 216.299804688 319.583984375 l 1
 192.547851562 310.479492188 l 1
 192.547851562 251.537109375 l 1
 192.547851562 192.59375 l 1
 205.044921875 180.096679688 l 1
 217.541015625 167.599609375 l 1
 287.49609375 172.739257812 l 1
EndSplineSet
EndChar
StartChar: B
Encoding: 66 66 2
Width: 1000
Flags: HO
LayerCount: 2
Fore
SplineSet
430.192382812 -193.053710938 m 5
 267.079101562 -200 l 5
 255.221679688 -180.796875 l 5
 243.365234375 -161.633789062 l 5
 235.419921875 300.1796875 l 5
 227.475585938 761.993164062 l 5
 244.72265625 772.65234375 l 5
 262.008789062 783.3125 l 5
 414.518554688 791.65625 l 5
 567.025390625 800 l 5
 643.544921875 724.565429688 l 5
 720.065429688 649.126953125 l 5
 720.065429688 569.201171875 l 5
 720.065429688 489.271484375 l 5
 695.912109375 462.5625 l 5
 671.758789062 435.893554688 l 5
 704.615234375 334.497070312 l 5
 737.47265625 233.100585938 l 5
 754.998046875 202.3203125 l 5
 772.524414062 171.540039062 l 5
 768.212890625 75.572265625 l 5
 763.901367188 -20.38671875 l 5
 741.983398438 -53.7216796875 l 5
 720.026367188 -87.0576171875 l 5
 720.026367188 -112.967773438 l 5
 720.026367188 -138.877929688 l 5
 656.6484375 -162.512695312 l 5
 593.270507812 -186.146484375 l 5
 430.192382812 -193.053710938 l 5
463.049804688 -79.5283203125 m 5
 562.078125 -79.5283203125 l 5
 597.889648438 -41.44140625 l 5
 633.700195312 -3.35546875 l 5
 626.873046875 112.77734375 l 5
 620.046875 228.913085938 l 5
 590.703125 261.331054688 l 5
 561.359375 293.748046875 l 5
 467.4765625 288.7578125 l 5
 373.58984375 283.767578125 l 5
 368.798828125 102.0859375 l 5
 364.008789062 -79.595703125 l 5
 463.049804688 -79.5283203125 l 5
457.021484375 418.787109375 m 5
 506.61328125 427.889648438 l 5
 537.314453125 455.635742188 l 5
 568.014648438 483.422851562 l 5
 568.014648438 547.75 l 5
 568.014648438 612.07421875 l 5
 530.0078125 647.565429688 l 5
 491.961914062 683.057617188 l 5
 432.807617188 672.0390625 l 5
 373.658203125 661.01953125 l 5
 366.911132812 654.352539062 l 5
 360.1640625 647.685546875 l 5
 363.357421875 542.388671875 l 5
 366.551757812 437.095703125 l 5
 387.072265625 423.362304688 l 5
 407.592773438 409.62890625 l 5
 457.021484375 418.787109375 l 5
EndSplineSet
EndChar
StartChar: C
Encoding: 67 67 5
Width: 566
Flags: HW
LayerCount: 2
Fore
SplineSet
333.354492188 -194.034179688 m 1
 231.34375 -200 l 1
 188.685546875 -194.115234375 l 1
 146.028320312 -188.23046875 l 1
 124.422851562 -170.495117188 l 1
 102.818359375 -152.758789062 l 1
 63.7998046875 -74.013671875 l 1
 24.7822265625 4.7353515625 l 1
 21.5576171875 269.22265625 l 1
 18.3330078125 533.70703125 l 1
 28.732421875 605.66796875 l 1
 39.1318359375 677.625976562 l 1
 71.41796875 687.86328125 l 1
 103.705078125 698.1015625 l 1
 103.705078125 730.46875 l 1
 103.705078125 762.8359375 l 1
 138.41015625 781.41796875 l 1
 173.115234375 800 l 1
 308.122070312 793.389648438 l 1
 443.12890625 786.779296875 l 1
 469.450195312 764.932617188 l 1
 495.770507812 743.084960938 l 1
 487.830078125 730.227539062 l 1
 479.889648438 717.369140625 l 1
 511.813476562 688.46875 l 1
 543.737304688 659.567382812 l 1
 541.318359375 588.053710938 l 1
 538.900390625 516.5390625 l 1
 487.708984375 516.5390625 l 1
 436.518554688 516.5390625 l 1
 430.834960938 567.73046875 l 1
 425.151367188 618.920898438 l 1
 399.314453125 647.701171875 l 1
 373.4765625 676.48046875 l 1
 384.682617188 694.619140625 l 1
 395.887695312 712.7578125 l 1
 302.180664062 712.7578125 l 1
 208.47265625 712.7578125 l 1
 198.154296875 680.189453125 l 1
 187.834960938 647.620117188 l 1
 164.295898438 638.591796875 l 1
 140.755859375 629.5625 l 1
 146.801757812 309.454101562 l 1
 152.848632812 -10.650390625 l 1
 192.349609375 -41.0419921875 l 1
 231.8515625 -71.4345703125 l 1
 301.724609375 -71.8173828125 l 1
 371.602539062 -72.2001953125 l 1
 399.657226562 -41.203125 l 1
 427.7109375 -10.20703125 l 1
 435.2890625 48.392578125 l 1
 442.8671875 106.99609375 l 1
 444.076171875 119.814453125 l 1
 445.28515625 132.591796875 l 1
 476 132.591796875 l 1
 506.713867188 132.591796875 l 1
 527.190429688 112.115234375 l 1
 547.666992188 91.638671875 l 1
 547.666992188 36.3369140625 l 1
 547.666992188 -18.9658203125 l 1
 530.6171875 -29.5263671875 l 1
 513.56640625 -40.0869140625 l 1
 513.56640625 -72.3330078125 l 1
 513.56640625 -104.579101562 l 1
 474.790039062 -146.40625 l 1
 436.014648438 -188.23046875 l 1
 333.354492188 -194.034179688 l 1
EndSplineSet
EndChar
StartChar: D
Encoding: 68 68 4
Width: 566
Flags: HW
LayerCount: 2
Fore
SplineSet
231.993164062 -199.60546875 m 5
 72.7041015625 -200 l 5
 48.2265625 -172.959960938 l 5
 23.7490234375 -145.920898438 l 5
 25.7197265625 294.639648438 l 5
 27.6904296875 735.19921875 l 5
 44.560546875 755.853515625 l 5
 61.4306640625 776.5078125 l 5
 78.1044921875 766.219726562 l 5
 94.77734375 755.932617188 l 5
 108.415039062 777.965820312 l 5
 122.053710938 800 l 5
 167.622070312 779.227539062 l 5
 213.19140625 758.455078125 l 5
 223.045898438 771.817382812 l 5
 232.900390625 785.1796875 l 5
 278.681640625 788.333007812 l 5
 324.467773438 791.486328125 l 5
 399.658203125 719.4453125 l 5
 474.849609375 647.399414062 l 5
 474.849609375 629.543945312 l 5
 474.849609375 611.688476562 l 5
 504.056640625 595.370117188 l 5
 533.263671875 579.051757812 l 5
 537.7578125 282.522460938 l 5
 542.250976562 -14.005859375 l 5
 516.90625 -28.1962890625 l 5
 491.561523438 -42.3857421875 l 5
 491.561523438 -73.5244140625 l 5
 491.561523438 -104.6640625 l 5
 441.443359375 -151.962890625 l 5
 391.326171875 -199.266601562 l 5
 231.993164062 -199.60546875 l 5
207.436523438 -107.430664062 m 5
 222.533203125 -107.430664062 l 5
 232.860351562 -90.7578125 l 5
 243.1875 -74.0849609375 l 5
 283.2578125 -74.0849609375 l 5
 323.333007812 -74.0849609375 l 5
 344.854492188 -47.873046875 l 5
 366.375 -21.6611328125 l 5
 396.173828125 11.1337890625 l 5
 425.97265625 43.888671875 l 5
 422.819335938 318.612304688 l 5
 419.666015625 593.3359375 l 5
 387.147460938 593.3359375 l 5
 354.62890625 593.3359375 l 5
 304.91796875 635.165039062 l 5
 255.209960938 676.989257812 l 5
 235.77734375 664.967773438 l 5
 216.344726562 652.9453125 l 5
 182.958984375 652.157226562 l 5
 149.57421875 651.369140625 l 5
 151.938476562 307.220703125 l 5
 154.303710938 -36.9267578125 l 5
 173.302734375 -72.4013671875 l 5
 192.30078125 -107.875976562 l 5
 207.436523438 -107.430664062 l 5
EndSplineSet
EndChar
StartChar: E
Encoding: 69 69 6
Width: 566
Flags: W
HStem: -200 7.59961<157.923 294.025> -184.797 107.863<319.338 490.695> 680.84 119.16<205.355 410.168>
VStem: 42.0879 138.748<372.077 621.321> 48.2012 130.623<-37.75 75.9629>
LayerCount: 2
Fore
SplineSet
306.8671875 -192.396484375 m 1xe8
 145.07421875 -200 l 1
 111 -192.1953125 l 1
 76.92578125 -184.390625 l 1
 62.564453125 -170.833984375 l 1
 48.201171875 -157.276367188 l 1xe8
 42.087890625 283.065429688 l 1
 35.97265625 723.40234375 l 1
 51.662109375 761.701171875 l 1
 67.3515625 800 l 1
 280.185546875 800 l 1
 493.017578125 800 l 1
 511.5234375 765.442382812 l 1
 530.02734375 730.885742188 l 1
 470.09765625 705.862304688 l 1
 410.16796875 680.83984375 l 1
 307.763671875 680.83984375 l 1
 205.35546875 680.83984375 l 1
 195.580078125 641.817382812 l 1
 185.802734375 602.793945312 l 1
 184.595703125 509.84375 l 1
 183.388671875 416.893554688 l 1
 185.400390625 394.485351562 l 1
 187.412109375 372.077148438 l 1
 318.34765625 375.698242188 l 1
 449.283203125 379.720703125 l 1
 470.927734375 347.094726562 l 1
 492.5703125 314.46875 l 1
 478.650390625 291.940429688 l 1
 464.732421875 269.411132812 l 1
 349.3359375 255.08984375 l 1
 233.9375 240.767578125 l 1
 208.392578125 215.221679688 l 1
 182.845703125 189.67578125 l 1
 180.8359375 75.962890625 l 1xf0
 178.82421875 -37.75 l 1
 190.16796875 -56.134765625 l 1
 201.513671875 -74.51953125 l 1
 351.935546875 -75.7265625 l 1
 502.36328125 -76.93359375 l 1
 507.75390625 -123.865234375 l 1
 513.14453125 -170.796875 l 1
 490.6953125 -177.796875 l 1
 468.287109375 -184.796875 l 1
 306.49609375 -192.400390625 l 1
 306.8671875 -192.396484375 l 1xe8
EndSplineSet
EndChar
StartChar: F
Encoding: 70 70 72
Width: 566
Flags: HW
LayerCount: 2
Fore
SplineSet
120.763671875 -200 m 1
 67.978515625 -200 l 1
 66.3349609375 -134.783203125 l 1
 64.6923828125 -69.5673828125 l 1
 57.7080078125 308.688476562 l 1
 50.68359375 686.944335938 l 1
 68.3486328125 686.944335938 l 1
 86.0126953125 686.944335938 l 1
 64.7744140625 720.918945312 l 1
 43.53515625 754.892578125 l 1
 55.859375 767.216796875 l 1
 68.18359375 779.541992188 l 1
 194.33203125 789.770507812 l 1
 320.484375 800 l 1
 421.474609375 794.001953125 l 1
 522.46484375 788.00390625 l 1
 517.124023438 751.1953125 l 1
 511.783203125 714.38671875 l 1
 450.916992188 699.84375 l 1
 390.046875 685.30078125 l 1
 372.669921875 686.944335938 l 1
 355.29296875 688.587890625 l 1
 263.989257812 698.32421875 l 1
 172.686523438 708.060546875 l 1
 171.04296875 667.266601562 l 1
 169.400390625 626.47265625 l 1
 166.11328125 516.760742188 l 1
 162.827148438 407.045898438 l 1
 173.877929688 389.174804688 l 1
 184.928710938 371.3046875 l 1
 217.752929688 375.001953125 l 1
 250.576171875 378.69921875 l 1
 357.244140625 376.645507812 l 1
 463.911132812 374.590820312 l 1
 473.565429688 326.764648438 l 1
 483.219726562 278.94140625 l 1
 459.720703125 260.743164062 l 1
 436.22265625 242.543945312 l 1
 309.249023438 238.189453125 l 1
 182.274414062 233.834960938 l 1
 173.360351562 224.919921875 l 1
 164.4453125 216.004882812 l 1
 169.005859375 8.33984375 l 1
 173.524414062 -199.326171875 l 1
 120.735351562 -199.326171875 l 1
 120.763671875 -200 l 1
EndSplineSet
EndChar
StartChar: G
Encoding: 71 71 73
Width: 566
Flags: HW
LayerCount: 2
Fore
SplineSet
473.32421875 -181.234375 m 1
 437.59765625 -200 l 1
 415.18359375 -158.094726562 l 1
 392.76953125 -116.190429688 l 1
 357.565429688 -127.176757812 l 1
 322.360351562 -138.163085938 l 1
 313.859375 -150.352539062 l 1
 305.359375 -162.541992188 l 1
 220.491210938 -173.006835938 l 1
 135.618164062 -183.47265625 l 1
 88.9384765625 -142.380859375 l 1
 42.26171875 -101.286132812 l 1
 42.26171875 -69.9306640625 l 1
 42.26171875 -38.5751953125 l 1
 23.9375 -20.2509765625 l 1
 5.61328125 -1.9267578125 l 1
 2.806640625 319.84765625 l 1
 0 641.618164062 l 1
 25.4609375 672.493164062 l 1
 50.9228515625 703.3671875 l 1
 46.111328125 731.715820312 l 1
 41.2998046875 760.063476562 l 1
 85.0966796875 780.032226562 l 1
 128.89453125 800 l 1
 256.517578125 800 l 1
 384.140625 800 l 1
 416.98046875 782.4375 l 1
 449.819335938 764.875 l 1
 449.819335938 734.161132812 l 1
 449.819335938 703.447265625 l 1
 483.78125 672.733398438 l 1
 517.743164062 642.01953125 l 1
 517.743164062 584.216796875 l 1
 517.743164062 526.413085938 l 1
 454.08984375 531.666015625 l 1
 390.436523438 536.918945312 l 1
 384.702148438 579.352539062 l 1
 378.96875 621.791015625 l 1
 343.403320312 660.123046875 l 1
 307.836914062 698.455078125 l 1
 250.174804688 692.561523438 l 1
 192.51171875 686.626953125 l 1
 152.735351562 640.315429688 l 1
 112.959960938 594 l 1
 117.009765625 307.157226562 l 1
 121.059570312 20.314453125 l 1
 149.688476562 -11.3212890625 l 1
 178.317382812 -42.9580078125 l 1
 169.696289062 -51.5791015625 l 1
 161.076171875 -60.19921875 l 1
 216.340820312 -57.7939453125 l 1
 271.610351562 -55.3876953125 l 1
 309.782226562 -30.9287109375 l 1
 347.994140625 -6.4697265625 l 1
 347.994140625 29.8173828125 l 1
 347.994140625 66.1044921875 l 1
 374.296875 87.95703125 l 1
 400.600585938 109.809570312 l 1
 395.508789062 153.69921875 l 1
 390.416015625 197.58984375 l 1
 339.493164062 203.323242188 l 1
 288.571289062 209.056640625 l 1
 266.517578125 227.30078125 l 1
 244.46484375 245.544921875 l 1
 249.516601562 280.990234375 l 1
 254.569335938 316.435546875 l 1
 373.38671875 326.05859375 l 1
 492.208984375 335.681640625 l 1
 506.563476562 323.572265625 l 1
 520.91796875 311.463867188 l 1
 524.52734375 89.01953125 l 1
 528.135742188 -133.423828125 l 1
 518.672851562 -147.858398438 l 1
 509.169921875 -162.29296875 l 1
 473.32421875 -181.234375 l 1
EndSplineSet
EndChar
StartChar: H
Encoding: 72 72 74
Width: 566
Flags: HW
LayerCount: 2
Fore
SplineSet
503.126953125 -184.749023438 m 1
 472.169921875 -200 l 1
 443.03125 -193.3046875 l 1
 413.892578125 -186.608398438 l 1
 408.0234375 14.2783203125 l 1
 402.154296875 215.165039062 l 1
 375.909179688 231.739257812 l 1
 349.663085938 248.313476562 l 1
 258.837890625 248.577148438 l 1
 168.01171875 248.837890625 l 1
 154.455078125 226.973632812 l 1
 140.857421875 205.109375 l 1
 137.55078125 21.5859375 l 1
 134.244140625 -161.9375 l 1
 106.345703125 -179.544921875 l 1
 78.447265625 -197.15234375 l 1
 47.8203125 -177.850585938 l 1
 17.193359375 -158.548828125 l 1
 14.7138671875 -116.701171875 l 1
 12.234375 -74.8525390625 l 1
 6.1171875 353.82421875 l 1
 0 782.49609375 l 1
 62.76171875 787.745117188 l 1
 125.5234375 792.994140625 l 1
 128.830078125 621.514648438 l 1
 132.13671875 450.03515625 l 1
 141.807617188 418.623046875 l 1
 151.520507812 387.252929688 l 1
 234.633789062 393.907226562 l 1
 317.747070312 400.561523438 l 1
 338.206054688 413.208984375 l 1
 358.665039062 425.856445312 l 1
 358.665039062 407.33984375 l 1
 358.665039062 388.823242188 l 1
 375.611328125 388.823242188 l 1
 392.556640625 388.823242188 l 1
 397.475585938 594.4140625 l 1
 402.393554688 800 l 1
 454.884765625 800 l 1
 507.375976562 800 l 1
 511.921875 747.508789062 l 1
 516.46875 695.018554688 l 1
 525.396484375 262.770507812 l 1
 534.323242188 -169.48046875 l 1
 503.366210938 -184.732421875 l 1
 503.126953125 -184.749023438 l 1
EndSplineSet
EndChar
StartChar: I
Encoding: 73 73 75
Width: 566
Flags: HW
LayerCount: 2
Fore
SplineSet
336.953125 -193.767578125 m 1
 267.975585938 -200 l 1
 198.998046875 -195.559570312 l 1
 130.015625 -191.119140625 l 1
 73.9716796875 -181.83203125 l 1
 17.927734375 -172.543945312 l 1
 17.927734375 -123.795898438 l 1
 17.927734375 -75.04296875 l 1
 86.9052734375 -64.00390625 l 1
 155.8828125 -52.96484375 l 1
 157.10546875 -22.9833984375 l 1
 158.327148438 6.998046875 l 1
 154.661132812 239.802734375 l 1
 150.995117188 472.607421875 l 1
 146.921875 524.341796875 l 1
 142.84765625 576.076171875 l 1
 140.403320312 640.744140625 l 1
 137.959960938 705.412109375 l 1
 68.9775390625 705.412109375 l 1
 -0 705.412109375 l 1
 -0 739.588867188 l 1
 -0 773.766601562 l 1
 38.8212890625 783.216796875 l 1
 77.6015625 792.66796875 l 1
 239.46484375 796.333984375 l 1
 401.32421875 800 l 1
 420.55078125 769.326171875 l 1
 439.778320312 738.65234375 l 1
 413.911132812 722.154296875 l 1
 388.043945312 705.65625 l 1
 340.619140625 705.399414062 l 1
 293.19921875 705.126953125 l 1
 290.754882812 674.94140625 l 1
 288.310546875 644.755859375 l 1
 284.64453125 561.720703125 l 1
 280.978515625 478.684570312 l 1
 262.525390625 460.231445312 l 1
 244.072265625 441.778320312 l 1
 268.594726562 404.3828125 l 1
 293.118164062 366.98828125 l 1
 277.678710938 313.16796875 l 1
 262.240234375 259.34765625 l 1
 271.283203125 250.263671875 l 1
 280.3671875 241.1796875 l 1
 283.21875 89.435546875 l 1
 286.0703125 -62.3134765625 l 1
 357.043945312 -67.52734375 l 1
 428.022460938 -72.7421875 l 1
 436.046875 -114.841796875 l 1
 444.112304688 -156.942382812 l 1
 424.966796875 -172.340820312 l 1
 405.821289062 -187.73828125 l 1
 336.84375 -194.01171875 l 1
 336.953125 -193.767578125 l 1
EndSplineSet
EndChar
StartChar: K
Encoding: 75 75 77
Width: 566
Flags: HW
LayerCount: 2
Fore
SplineSet
62.904296875 -176.000976562 m 2
 41.412109375 -154.508789062 36.7958984375 -98.845703125 35.3994140625 156.56640625 c 0
 34.623046875 325.28515625 33.0712890625 500.276367188 32.2958984375 545.440429688 c 0
 31.51953125 590.60546875 32.2958984375 666.356445312 33.84765625 713.778320312 c 0
 36.951171875 797.346679688 38.38671875 800 84.75390625 800 c 0
 127.579101562 800 133.453125 793.560546875 140.956054688 738.413085938 c 0
 145.572265625 704.545898438 149.452148438 617.704101562 149.607421875 545.440429688 c 0
 149.8125 473.177734375 150.3828125 401.125 150.770507812 385.315429688 c 0
 151.934570312 346.447265625 184.599609375 348.4609375 184.599609375 387.255859375 c 0
 184.599609375 404.208984375 195.6953125 427.291992188 209.234375 438.534179688 c 0
 222.7734375 449.78515625 233.869140625 469.686523438 233.869140625 482.775390625 c 0
 233.869140625 495.849609375 244.96484375 517.65234375 258.50390625 531.20703125 c 0
 272.04296875 544.74609375 283.138671875 569.303710938 283.138671875 585.759765625 c 0
 283.138671875 602.208984375 294.233398438 619.938476562 307.7734375 625.12890625 c 0
 321.3125 630.327148438 332.407226562 649.918945312 332.407226562 668.637695312 c 0
 332.407226562 720.71875 402.443359375 799.844726562 448.54296875 799.844726562 c 0
 482.915039062 799.844726562 491.05859375 755.149414062 465.806640625 705.189453125 c 0
 431.241210938 636.787109375 398.110351562 550.545898438 398.110351562 528.8828125 c 0
 398.110351562 515.96484375 383.794921875 497.731445312 366.298828125 488.350585938 c 0
 348.802734375 479.000976562 333.400390625 458.401367188 332.08203125 442.611328125 c 0
 324.08984375 346.024414062 332.392578125 268.567382812 353.379882812 244.491210938 c 0
 388.955078125 203.682617188 437.83984375 92.2255859375 435.248046875 57.853515625 c 0
 434.084960938 41.404296875 443.627929688 27.943359375 456.624023438 27.943359375 c 0
 479.1640625 27.943359375 483.08203125 21.037109375 486.806640625 -25.4306640625 c 0
 487.58203125 -36.7197265625 500.850585938 -59.6865234375 515.98046875 -76.50390625 c 0
 542.787109375 -106.259765625 539.256835938 -150.461914062 508.337890625 -171.225585938 c 0
 479.590820312 -190.544921875 430.612304688 -165.2890625 420.774414062 -126.114257812 c 0
 415.381835938 -104.622070312 405.60546875 -87.017578125 399.048828125 -87.017578125 c 0
 392.493164062 -87.017578125 387.139648438 -77.435546875 387.139648438 -65.7578125 c 0
 387.139648438 -40.076171875 256.141601562 183.288085938 226.8046875 207.635742188 c 0
 211.713867188 220.166992188 198.407226562 216.520507812 178.345703125 194.368164062 c 0
 156.543945312 170.276367188 150.608398438 130.442382812 150.258789062 5.775390625 c 0
 149.948242188 -112.970703125 143.6640625 -158.438476562 124.96484375 -177.110351562 c 0
 94.31640625 -207.7578125 94.2001953125 -207.7578125 62.5751953125 -176.333984375 c 2
 62.904296875 -176.000976562 l 2
EndSplineSet
EndChar
StartChar: L
Encoding: 76 76 78
Width: 566
Flags: HW
LayerCount: 2
Fore
SplineSet
253.771484375 -194.93359375 m 1
 50.173828125 -200 l 1
 29.990234375 -187.538085938 l 1
 9.8056640625 -175.076171875 l 1
 4.9033203125 301.674804688 l 1
 -0 778.426757812 l 1
 42.966796875 789.213867188 l 1
 85.93359375 800 l 1
 111.877929688 778.467773438 l 1
 137.823242188 756.935546875 l 1
 120.458984375 736.015625 l 1
 103.09375 715.096679688 l 1
 115.922851562 702.225585938 l 1
 128.752929688 689.35546875 l 1
 129.978515625 539.483398438 l 1
 131.204101562 389.606445312 l 1
 136.06640625 162.438476562 l 1
 140.928710938 -64.73046875 l 1
 222.698242188 -75.5576171875 l 1
 304.46875 -86.384765625 l 1
 358.813476562 -75.5166015625 l 1
 413.159179688 -64.6484375 l 1
 457.037109375 -75.6396484375 l 1
 500.915039062 -86.6708984375 l 1
 500.915039062 -130.124023438 l 1
 500.915039062 -173.581054688 l 1
 479.30078125 -181.752929688 l 1
 457.6875 -189.924804688 l 1
 254.08984375 -194.991210938 l 1
 253.771484375 -194.93359375 l 1
EndSplineSet
EndChar
StartChar: N
Encoding: 78 78 80
Width: 566
Flags: HW
LayerCount: 2
Fore
SplineSet
100.565429688 -195.584960938 m 1
 51.0556640625 -195.584960938 l 1
 35.296875 -165.096679688 l 1
 19.4970703125 -134.608398438 l 1
 19.6044921875 315.229492188 l 1
 19.70703125 765.068359375 l 1
 59.0419921875 780.00390625 l 1
 98.3759765625 794.939453125 l 1
 135.077148438 785.352539062 l 1
 171.778320312 775.765625 l 1
 171.778320312 744.82421875 l 1
 171.778320312 713.883789062 l 1
 197.90625 703.84375 l 1
 224.033203125 693.8046875 l 1
 224.033203125 651.844726562 l 1
 224.033203125 609.885742188 l 1
 250.16015625 588.202148438 l 1
 276.287109375 566.518554688 l 1
 276.287109375 543.765625 l 1
 276.287109375 521.012695312 l 1
 300.274414062 497.024414062 l 1
 324.26171875 473.037109375 l 1
 336.482421875 417.413085938 l 1
 348.702148438 361.793945312 l 1
 360.633789062 361.793945312 l 1
 372.56640625 361.793945312 l 1
 377.5859375 566.453125 l 1
 382.60546875 771.116210938 l 1
 397.006835938 785.55859375 l 1
 411.407226562 800 l 1
 461.426757812 794.28125 l 1
 511.447265625 788.561523438 l 1
 512.26953125 753.711914062 l 1
 513.092773438 718.862304688 l 1
 522.967773438 701.458007812 l 1
 532.842773438 684.053710938 l 1
 537.204101562 544.708007812 l 1
 541.565429688 405.366210938 l 1
 544.034179688 119.963867188 l 1
 546.502929688 -165.438476562 l 1
 508.608398438 -182.71875 l 1
 470.713867188 -200 l 1
 430.2265625 -189.219726562 l 1
 389.740234375 -178.481445312 l 1
 359.251953125 -111.649414062 l 1
 328.763671875 -44.8173828125 l 1
 328.763671875 -32.14453125 l 1
 328.763671875 -19.47265625 l 1
 294.16015625 53.6015625 l 1
 259.557617188 126.670898438 l 1
 235.611328125 157.159179688 l 1
 211.665039062 187.647460938 l 1
 202.736328125 187.647460938 l 1
 193.807617188 187.647460938 l 1
 190.516601562 18.4755859375 l 1
 187.224609375 -150.696289062 l 1
 168.626953125 -173.120117188 l 1
 150.029296875 -195.543945312 l 1
 100.51953125 -195.543945312 l 1
 100.565429688 -195.584960938 l 1
EndSplineSet
EndChar
StartChar: O
Encoding: 79 79 81
Width: 566
Flags: HW
LayerCount: 2
Fore
SplineSet
309.30859375 -187.462890625 m 1
 191.78125 -200 l 1
 155.5 -183.833984375 l 1
 119.216796875 -167.66796875 l 1
 119.216796875 -151.381835938 l 1
 119.216796875 -135.094726562 l 1
 94.94921875 -144.407226562 l 1
 70.6796875 -153.719726562 l 1
 77.9765625 -113.40625 l 1
 85.2734375 -73.091796875 l 1
 62.8984375 -50.435546875 l 1
 40.525390625 -27.779296875 l 1
 27.50390625 6.3662109375 l 1
 14.482421875 40.51171875 l 1
 16.09375 342.184570312 l 1
 17.70703125 643.856445312 l 1
 36.61328125 698.143554688 l 1
 55.521484375 752.4296875 l 1
 112.396484375 776.21484375 l 1
 169.271484375 800 l 1
 302.080078125 799.596679688 l 1
 434.890625 799.193359375 l 1
 464.763671875 776.537109375 l 1
 494.634765625 753.880859375 l 1
 494.634765625 726.75 l 1
 494.634765625 699.618164062 l 1
 523.09765625 683.694335938 l 1
 551.517578125 667.770507812 l 1
 547.890625 331.114257812 l 1
 544.26171875 -5.5419921875 l 1
 514.30859375 -61.3974609375 l 1
 484.35546875 -117.248046875 l 1
 455.732421875 -145.87109375 l 1
 427.109375 -174.493164062 l 1
 309.58203125 -187.071289062 l 1
 309.30859375 -187.462890625 l 1
314.7109375 -59.111328125 m 1
 348.05078125 -48.912109375 l 1
 371.392578125 -25.5703125 l 1
 394.734375 -2.228515625 l 1
 411.787109375 -2.228515625 l 1
 428.83984375 -2.228515625 l 1
 420.53515625 266.563476562 l 1
 412.23046875 535.356445312 l 1
 403.603515625 583.688476562 l 1
 394.9765625 632.016601562 l 1
 363.7734375 655.680664062 l 1
 332.5703125 679.344726562 l 1
 272.841796875 679.344726562 l 1
 213.107421875 679.344726562 l 1
 179.9296875 654.26953125 l 1
 146.751953125 629.194335938 l 1
 141.630859375 539.62109375 l 1
 136.51171875 450.047851562 l 1
 134.8984375 432.995117188 l 1
 133.287109375 415.942382812 l 1
 143.08203125 202.614257812 l 1
 152.87890625 -10.71484375 l 1
 216.986328125 -40.0224609375 l 1
 281.08984375 -69.3310546875 l 1
 314.4296875 -59.1318359375 l 1
 314.7109375 -59.111328125 l 1
EndSplineSet
EndChar
StartChar: P
Encoding: 80 80 82
Width: 566
Flags: HW
LayerCount: 2
Fore
SplineSet
107.848632812 -199.58984375 m 1
 77.767578125 -199.333984375 l 1
 52.0703125 -183.095703125 l 1
 26.3740234375 -166.857421875 l 1
 24.34375 9.9677734375 l 1
 22.314453125 186.793945312 l 1
 18.66015625 453.165039062 l 1
 15.0068359375 719.540039062 l 1
 16.630859375 747.55078125 l 1
 18.2548828125 775.561523438 l 1
 214.079101562 787.78125 l 1
 409.899414062 800 l 1
 454.97265625 770.446289062 l 1
 500.049804688 740.93359375 l 1
 480.807617188 717.75390625 l 1
 461.565429688 694.573242188 l 1
 506.28125 674.194335938 l 1
 550.993164062 653.815429688 l 1
 550.993164062 521.198242188 l 1
 550.993164062 388.577148438 l 1
 525.21484375 367.18359375 l 1
 499.436523438 345.790039062 l 1
 499.436523438 308.198242188 l 1
 499.436523438 270.606445312 l 1
 475.525390625 237.927734375 l 1
 451.615234375 205.248046875 l 1
 326.0859375 198.143554688 l 1
 200.556640625 191.040039062 l 1
 175.103515625 165.5859375 l 1
 149.649414062 140.1328125 l 1
 145.58984375 0.1474609375 l 1
 141.530273438 -139.837890625 l 1
 139.907226562 -169.918945312 l 1
 138.283203125 -200 l 1
 108.202148438 -199.744140625 l 1
 107.848632812 -199.58984375 l 1
256.147460938 315.708007812 m 1
 354.872070312 315.708007812 l 1
 389.662109375 362.969726562 l 1
 424.452148438 410.2265625 l 1
 416.49609375 519.006835938 l 1
 408.5390625 627.786132812 l 1
 384.913085938 636.838867188 l 1
 361.286132812 645.891601562 l 1
 361.286132812 669.842773438 l 1
 361.286132812 693.793945312 l 1
 266.341796875 693.793945312 l 1
 171.396484375 693.793945312 l 1
 157.47265625 655.147460938 l 1
 143.547851562 616.5 l 1
 140.70703125 496.682617188 l 1
 137.865234375 376.861328125 l 1
 147.567382812 346.29296875 l 1
 157.26953125 315.724609375 l 1
 256.147460938 315.708007812 l 1
EndSplineSet
EndChar
StartChar: R
Encoding: 82 82 3
Width: 566
Flags: HW
LayerCount: 2
Fore
SplineSet
95.025390625 -196.858398438 m 1
 54.296875 -193.337890625 l 1
 38.921875 -174.794921875 l 1
 23.548828125 -156.251953125 l 1
 27.5390625 287.998046875 l 1
 31.529296875 732.243164062 l 1
 52.224609375 739.127929688 l 1
 72.91796875 746.013671875 l 1
 72.91796875 769.486328125 l 1
 72.91796875 792.958007812 l 1
 94.435546875 792.958007812 l 1
 115.951171875 792.958007812 l 1
 135.12109375 773.7890625 l 1
 154.2890625 754.620117188 l 1
 181.634765625 777.310546875 l 1
 208.98046875 800 l 1
 229.712890625 771.637695312 l 1
 250.447265625 743.275390625 l 1
 267.54296875 743.275390625 l 1
 284.638671875 743.275390625 l 1
 294.18359375 768.1171875 l 1
 303.73046875 792.958007812 l 1
 345.65234375 792.958007812 l 1
 387.576171875 792.958007812 l 1
 387.576171875 768.1171875 l 1
 387.576171875 743.275390625 l 1
 428.978515625 743.275390625 l 1
 470.37890625 743.275390625 l 1
 470.37890625 711.352539062 l 1
 470.37890625 679.430664062 l 1
 498.625 651.185546875 l 1
 526.869140625 622.940429688 l 1
 528.43359375 529.930664062 l 1
 530 436.92578125 l 1
 487.677734375 344.401367188 l 1
 445.353515625 251.881835938 l 1
 426.185546875 258.336914062 l 1
 407.015625 264.791015625 l 1
 395.7890625 246.639648438 l 1
 384.560546875 228.487304688 l 1
 403.96484375 205.09375 l 1
 423.369140625 181.69921875 l 1
 412.6875 164.408203125 l 1
 402.0078125 147.1171875 l 1
 421.333984375 147.1171875 l 1
 440.66015625 147.1171875 l 1
 430.52734375 120.75 l 1
 420.39453125 94.3818359375 l 1
 453.5703125 85.697265625 l 1
 486.744140625 77.0126953125 l 1
 486.744140625 18.14453125 l 1
 486.744140625 -40.724609375 l 1
 514.59765625 -71.5126953125 l 1
 542.451171875 -102.299804688 l 1
 526.607421875 -147.34375 l 1
 510.763671875 -192.3828125 l 1
 479.859375 -192.3828125 l 1
 448.953125 -192.3828125 l 1
 430.56640625 -159.443359375 l 1
 412.21875 -126.50390625 l 1
 383.23046875 -86.81640625 l 1
 354.2421875 -47.1328125 l 1
 354.2421875 -7.60546875 l 1
 354.2421875 31.9189453125 l 1
 313.845703125 93.666015625 l 1
 273.455078125 155.4140625 l 1
 262.4609375 200.625976562 l 1
 251.46875 245.833984375 l 1
 220.0546875 229.01171875 l 1
 188.640625 212.190429688 l 1
 188.640625 224.356445312 l 1
 188.640625 236.5234375 l 1
 172.640625 220.522460938 l 1
 156.640625 204.522460938 l 1
 154.68359375 39.19140625 l 1
 152.728515625 -126.140625 l 1
 144.08203125 -163.0703125 l 1
 135.4375 -200 l 1
 95.025390625 -196.858398438 l 1
294.853515625 329.06640625 m 1
 313.982421875 329.06640625 l 1
 361.373046875 382.892578125 l 1
 408.765625 436.71484375 l 1
 413.849609375 511.239257812 l 1
 418.935546875 585.763671875 l 1
 375.892578125 630.717773438 l 1
 332.84765625 675.670898438 l 1
 318.099609375 666.555664062 l 1
 303.349609375 657.440429688 l 1
 277.9609375 678.487304688 l 1
 252.572265625 699.534179688 l 1
 241.0703125 680.913085938 l 1
 229.568359375 662.331054688 l 1
 184.361328125 645.157226562 l 1
 139.158203125 627.983398438 l 1
 137.591796875 590.309570312 l 1
 136.02734375 552.63671875 l 1
 139.158203125 478.112304688 l 1
 142.287109375 403.586914062 l 1
 160.361328125 381.71875 l 1
 178.43359375 359.850585938 l 1
 207.970703125 367.557617188 l 1
 237.505859375 375.263671875 l 1
 256.71484375 352.143554688 l 1
 275.923828125 329.0234375 l 1
 294.853515625 329.06640625 l 1
EndSplineSet
EndChar
StartChar: S
Encoding: 83 83 1
Width: 1000
Flags: H
LayerCount: 2
Fore
SplineSet
602.3984375 -197.342773438 m 1
 576.947265625 -194.537109375 l 1
 463.046875 -188.604492188 l 1
 349.146484375 -182.672851562 l 1
 314.595703125 -138.7265625 l 1
 280.00390625 -94.77734375 l 1
 280.00390625 -73.693359375 l 1
 280.00390625 -52.6103515625 l 1
 255.11328125 -31.96875 l 1
 230.22265625 -11.326171875 l 1
 232.2265625 46.67578125 l 1
 234.23046875 104.674804688 l 1
 253.7109375 120.828125 l 1
 273.189453125 136.98046875 l 1
 323.083984375 123.633789062 l 1
 372.974609375 110.286132812 l 1
 374.578125 76.857421875 l 1
 376.181640625 43.4296875 l 1
 398.185546875 1.720703125 l 1
 420.19140625 -39.9892578125 l 1
 438.869140625 -52.4541015625 l 1
 457.546875 -64.919921875 l 1
 504.80859375 -65.1328125 l 1
 552.064453125 -65.3447265625 l 1
 593.890625 -37.9287109375 l 1
 635.7109375 -10.5126953125 l 1
 635.7109375 73.4912109375 l 1
 635.7109375 157.495117188 l 1
 619.23828125 188.27734375 l 1
 602.763671875 219.060546875 l 1
 538.640625 246.63671875 l 1
 474.513671875 274.1328125 l 1
 449.0625 290.045898438 l 1
 423.609375 305.958007812 l 1
 351.498046875 335.659179688 l 1
 279.3828125 365.359375 l 1
 279.3828125 402.435546875 l 1
 279.3828125 439.510742188 l 1
 253.931640625 460.634765625 l 1
 228.478515625 481.7578125 l 1
 228.478515625 579.673828125 l 1
 228.478515625 677.58984375 l 1
 253.650390625 687.25 l 1
 278.822265625 696.909179688 l 1
 269.482421875 721.239257812 l 1
 260.14453125 745.568359375 l 1
 298.982421875 772.784179688 l 1
 337.822265625 800 l 1
 467.259765625 800 l 1
 596.6953125 800 l 1
 650.1328125 781.362304688 l 1
 703.56640625 762.723632812 l 1
 703.56640625 731.299804688 l 1
 703.56640625 699.875 l 1
 728.416015625 685.966796875 l 1
 753.267578125 672.05859375 l 1
 758.1171875 615.39453125 l 1
 762.966796875 558.7265625 l 1
 735.912109375 541.130859375 l 1
 708.857421875 523.53515625 l 1
 663.80859375 534.837890625 l 1
 618.765625 546.140625 l 1
 618.765625 580.571289062 l 1
 618.765625 615.001953125 l 1
 573.865234375 656.615234375 l 1
 528.96875 698.223632812 l 1
 490.970703125 698.223632812 l 1
 452.974609375 698.223632812 l 1
 426.158203125 657.328125 l 1
 399.34375 616.436523438 l 1
 391.52734375 573.212890625 l 1
 383.671875 529.9921875 l 1
 403.232421875 488.575195312 l 1
 422.79296875 447.159179688 l 1
 520.767578125 403.666015625 l 1
 618.744140625 360.172851562 l 1
 618.744140625 344.380859375 l 1
 618.744140625 328.588867188 l 1
 661.1640625 317.926757812 l 1
 703.58203125 307.264648438 l 1
 703.58203125 284.217773438 l 1
 703.58203125 261.170898438 l 1
 730.236328125 239.0859375 l 1
 756.8515625 217 l 1
 748.794921875 186.137695312 l 1
 740.73828125 155.274414062 l 1
 756.12890625 145.774414062 l 1
 771.521484375 136.275390625 l 1
 771.12109375 65.162109375 l 1
 770.71875 -5.951171875 l 1
 745.7890625 -38.8984375 l 1
 720.857421875 -71.845703125 l 1
 720.857421875 -94.853515625 l 1
 720.857421875 -117.860351562 l 1
 674.197265625 -158.931640625 l 1
 627.53515625 -200 l 1
 602.3984375 -197.342773438 l 1
EndSplineSet
EndChar
StartChar: T
Encoding: 84 84 84
Width: 566
Flags: HW
LayerCount: 2
Fore
SplineSet
297.884765625 -198.057617188 m 1
 292.474609375 -196.0390625 l 1
 262.5546875 -188.205078125 l 1
 232.6328125 -180.372070312 l 1
 231.017578125 -143.142578125 l 1
 229.40234375 -105.953125 l 1
 228.19140625 -20.4833984375 l 1
 226.98046875 64.982421875 l 1
 228.595703125 133.360351562 l 1
 230.2109375 201.734375 l 1
 225.970703125 415.407226562 l 1
 221.73046875 629.076171875 l 1
 209.052734375 667.516601562 l 1
 196.373046875 705.998046875 l 1
 122.697265625 705.998046875 l 1
 49.017578125 705.998046875 l 1
 29.63671875 729.376953125 l 1
 10.25390625 752.756835938 l 1
 32.30078125 771.047851562 l 1
 54.34765625 789.33984375 l 1
 289.41796875 794.669921875 l 1
 524.4921875 800 l 1
 540.119140625 774.924804688 l 1
 555.74609375 749.849609375 l 1
 537.53515625 727.923828125 l 1
 519.32421875 705.998046875 l 1
 446.48828125 705.998046875 l 1
 373.65234375 705.998046875 l 1
 364.970703125 672.725585938 l 1
 356.2890625 639.453125 l 1
 363.59765625 237.735351562 l 1
 370.90625 -163.982421875 l 1
 337.271484375 -181.991210938 l 1
 303.634765625 -200 l 1
 298.224609375 -197.981445312 l 1
 297.884765625 -198.057617188 l 1
EndSplineSet
EndChar
StartChar: Y
Encoding: 89 89 89
Width: 566
Flags: HW
LayerCount: 2
Fore
SplineSet
254.391601562 -174.576171875 m 2
 238.450195312 -155.360351562 231.55078125 -95.5859375 231.122070312 27.5498046875 c 0
 230.342773438 191.423828125 227.224609375 208.063476562 179.809570312 293.129882812 c 0
 151.940429688 343.043945312 132.1640625 392.388671875 135.870117188 402.787109375 c 0
 139.768554688 413.194335938 127.413085938 446.6015625 108.859375 477.038085938 c 0
 90.306640625 507.479492188 75.10546875 554.072265625 75.06640625 580.583984375 c 0
 75.03515625 607.087890625 63.1787109375 641.86328125 48.71875 657.8515625 c 0
 10.326171875 700.254882812 32.1923828125 791.958984375 78.96484375 784.958984375 c 0
 97.634765625 782.23046875 120.770507812 765.041992188 130.41015625 746.87890625 c 0
 140.037109375 728.71484375 161.240234375 693.756835938 177.470703125 669.170898438 c 0
 193.723632812 644.576171875 207.014648438 601.884765625 207.014648438 574.29296875 c 0
 207.014648438 546.697265625 213.9921875 524.125976562 222.48828125 524.125976562 c 0
 231.024414062 524.125976562 242.990234375 490.72265625 249.110351562 449.875 c 0
 265.32421875 341.69921875 316.037109375 349.358398438 333.896484375 462.698242188 c 0
 338.416992188 491.307617188 352.52734375 529.641601562 365.311523438 547.859375 c 0
 378.056640625 566.061523438 388.502929688 597.893554688 388.502929688 618.5625 c 0
 388.502929688 639.220703125 395.908203125 656.13671875 404.990234375 656.13671875 c 0
 414.071289062 656.13671875 421.4765625 676.989257812 421.4765625 702.484375 c 0
 421.4765625 769.223632812 456.868164062 811.345703125 501.110351562 797.298828125 c 0
 530.732421875 787.905273438 536.96875 773.328125 536.96875 713.751953125 c 0
 536.96875 674.05859375 529.524414062 636.995117188 520.482421875 631.38671875 c 0
 511.400390625 625.7734375 503.995117188 600.283203125 503.995117188 574.682617188 c 0
 503.995117188 549.114257812 492.84765625 518.934570312 479.244140625 507.634765625 c 0
 465.173828125 495.942382812 454.494140625 459.966796875 454.494140625 424.087890625 c 0
 454.494140625 389.4375 447.010742188 356.459960938 437.889648438 350.807617188 c 0
 428.73046875 345.15625 406.280273438 309.5546875 388.00390625 271.692382812 c 0
 360.447265625 214.666015625 355.263671875 173.810546875 357.875 33.6806640625 c 0
 360.602539062 -109.5859375 356.315429688 -140.564453125 330.94140625 -168.678710938 c 0
 294.498046875 -208.96875 283.635742188 -209.803710938 254.411132812 -174.564453125 c 2
 254.391601562 -174.576171875 l 2
EndSplineSet
EndChar
StartChar: Z
Encoding: 90 90 90
Width: 566
Flags: HW
LayerCount: 2
Fore
SplineSet
284.142578125 -195.634765625 m 1
 73.9296875 -200 l 1
 52.1455078125 -191.063476562 l 1
 30.3603515625 -182.127929688 l 1
 30.3603515625 -115.982421875 l 1
 30.3603515625 -49.8369140625 l 1
 56.5107421875 -28.134765625 l 1
 82.66015625 -6.4326171875 l 1
 82.66015625 24.1650390625 l 1
 82.66015625 54.7626953125 l 1
 108.810546875 76.46484375 l 1
 134.959960938 98.1669921875 l 1
 134.959960938 165.766601562 l 1
 134.959960938 233.365234375 l 1
 149.043945312 233.365234375 l 1
 163.127929688 233.365234375 l 1
 195.908203125 307.454101562 l 1
 228.688476562 381.546875 l 1
 233.30078125 423.962890625 l 1
 237.913085938 466.375976562 l 1
 264.927734375 481.489257812 l 1
 291.942382812 496.602539062 l 1
 291.942382812 564.440429688 l 1
 291.942382812 632.282226562 l 1
 309.362304688 643.071289062 l 1
 326.78125 653.860351562 l 1
 326.78125 678.981445312 l 1
 326.78125 704.1015625 l 1
 226.54296875 704.365234375 l 1
 126.299804688 704.625 l 1
 101.961914062 720.026367188 l 1
 77.6240234375 735.427734375 l 1
 87.8369140625 762.03125 l 1
 98.0498046875 788.633789062 l 1
 242.924804688 794.317382812 l 1
 387.799804688 800 l 1
 445.45703125 794.481445312 l 1
 503.115234375 788.963867188 l 1
 513.534179688 761.825195312 l 1
 523.952148438 734.686523438 l 1
 495.125976562 718.543945312 l 1
 466.298828125 702.400390625 l 1
 466.298828125 669.25 l 1
 466.298828125 636.099609375 l 1
 437.966796875 620.244140625 l 1
 409.633789062 604.389648438 l 1
 409.971679688 554.000976562 l 1
 410.309570312 503.611328125 l 1
 384.365234375 474.291015625 l 1
 358.420898438 444.969726562 l 1
 369.6640625 393.711914062 l 1
 380.90625 342.44921875 l 1
 353.849609375 332.072265625 l 1
 326.793945312 321.694335938 l 1
 326.793945312 279.697265625 l 1
 326.793945312 237.705078125 l 1
 301.837890625 216.991210938 l 1
 276.8828125 196.27734375 l 1
 278.118164062 145.71875 l 1
 279.353515625 95.1650390625 l 1
 256.9921875 68.19140625 l 1
 234.630859375 41.2177734375 l 1
 229.153320312 -6.5107421875 l 1
 223.676757812 -54.2392578125 l 1
 348.360351562 -59.8818359375 l 1
 473.044921875 -65.5234375 l 1
 504.341796875 -82.2841796875 l 1
 535.639648438 -99.044921875 l 1
 535.639648438 -132.27734375 l 1
 535.639648438 -165.510742188 l 1
 514.884765625 -178.359375 l 1
 494.087890625 -191.208007812 l 1
 283.875 -195.573242188 l 1
 284.142578125 -195.634765625 l 1
EndSplineSet
EndChar
